<svg xmlns="http://www.w3.org/2000/svg" viewBox="0 0 174.59 159.35"><defs><style>.cls-1{fill:#fff;}</style></defs><g id="Layer_2" data-name="Layer 2"><g id="Layer_2-2" data-name="Layer 2"><path class="cls-1" d="M50.81,90.58,5.32,71.32s-9.92-4-2.66-17.77S30.06,4.07,30.06,4.07,36-5.56,55.84,4.81l33,13.93L155,46.29l4.74,1.93s20.74,8.29,3.85,20.44-60.44,41.48-60.44,41.48l-3.26.45L73.77,99.77,55.69,144.41,20,145l-.15,8.44S9.47,167.18.08,152.81v-36s8.66-14.92,19-.44c.17.24.33.48.5.74l.15,7.25,24.15.16L56.19,92.71Z"/><polyline class="cls-1" points="116.78 100.89 153.38 117.35 174.59 83.98 154.96 74.73"/></g></g></svg>