<svg width="29" height="21" viewBox="0 0 29 21" fill="none" xmlns="http://www.w3.org/2000/svg">
<path d="M2.71875 0C1.21777 0 0 1.17578 0 2.625C0 3.45078 0.402148 4.22734 1.0875 4.725L13.4125 13.65C14.0582 14.1148 14.9418 14.1148 15.5875 13.65L27.9125 4.725C28.5979 4.22734 29 3.45078 29 2.625C29 1.17578 27.7822 0 26.2812 0H2.71875ZM0 6.125V17.5C0 19.4305 1.62559 21 3.625 21H25.375C27.3744 21 29 19.4305 29 17.5V6.125L16.675 15.05C15.3836 15.9852 13.6164 15.9852 12.325 15.05L0 6.125Z" fill="white"/>
<!--! Font Awesome Free 6.4.2 by @fontawesome - https://fontawesome.com License - https://fontawesome.com/license (Commercial License) Copyright 2023 Fonticons, Inc. --> 
</svg>
