<svg width="20" height="27" viewBox="0 0 20 27" fill="none" xmlns="http://www.w3.org/2000/svg">
<path d="M11.2344 26.3933C13.9062 22.999 20 14.7722 20 10.1513C20 4.54692 15.5208 0 10 0C4.47917 0 0 4.54692 0 10.1513C0 14.7722 6.09375 22.999 8.76562 26.3933C9.40625 27.2022 10.5938 27.2022 11.2344 26.3933ZM10 6.76751C10.8841 6.76751 11.7319 7.12401 12.357 7.75859C12.9821 8.39317 13.3333 9.25384 13.3333 10.1513C13.3333 11.0487 12.9821 11.9094 12.357 12.5439C11.7319 13.1785 10.8841 13.535 10 13.535C9.11594 13.535 8.2681 13.1785 7.64298 12.5439C7.01786 11.9094 6.66667 11.0487 6.66667 10.1513C6.66667 9.25384 7.01786 8.39317 7.64298 7.75859C8.2681 7.12401 9.11594 6.76751 10 6.76751Z" fill="white"/>
<!--! Font Awesome Free 6.4.2 by @fontawesome - https://fontawesome.com License - https://fontawesome.com/license (Commercial License) Copyright 2023 Fonticons, Inc. --> 
</svg>
