<svg id="Layer_1" data-name="Layer 1" xmlns="http://www.w3.org/2000/svg" viewBox="0 0 538.78 531.27"><defs><style>.cls-1{isolation:isolate;}.cls-2{fill:#fff;}</style></defs><g class="cls-1"><path class="cls-2" d="M198.06,266.86H185.51a35.15,35.15,0,0,1-26-10.83,33.93,33.93,0,0,1-10.21-24.73V206.45A34.06,34.06,0,0,1,160.17,181a35.72,35.72,0,0,1,25.34-10.09h12.55a35.14,35.14,0,0,1,26,10.83,33.93,33.93,0,0,1,10.21,24.73V231.3a34.09,34.09,0,0,1-10.82,25.47A35.71,35.71,0,0,1,198.06,266.86Zm-12.55-16.24h12.55q8.49,0,13.66-7.63a20.45,20.45,0,0,0,3.57-11.69V206.45q0-9.72-7-15.5a15.51,15.51,0,0,0-10.21-3.82H185.51q-8.49,0-13.65,7.51a20.11,20.11,0,0,0-3.7,11.81V231.3q0,9.6,6.89,15.38A16.13,16.13,0,0,0,185.51,250.62Z" transform="translate(-22 0.01)"/><path class="cls-2" d="M268.07,188.36v77.27H249.25v-77a15.34,15.34,0,0,1,7.13-13.29,18.7,18.7,0,0,1,10.58-3.2h25.47q17.1,0,27.44,10.21a29.28,29.28,0,0,1,8.73,21.54v3.56q0,16-12.67,24.86a37.12,37.12,0,0,1-10.58,5l25.35,28.3H307.2l-23.38-26.45H269.3l10.09-16.24h13q11.56,0,15.63-8a17.21,17.21,0,0,0,1.6-7.51v-3.56q0-11.09-10-14.4a22.74,22.74,0,0,0-7.26-1.11Z" transform="translate(-22 0.01)"/><path class="cls-2" d="M345,172.12h18.82v93.51H345Z" transform="translate(-22 0.01)"/><path class="cls-2" d="M426.79,266.86H414.24a35.14,35.14,0,0,1-26-10.83,33.93,33.93,0,0,1-10.21-24.73V206.45A34.05,34.05,0,0,1,388.89,181a35.76,35.76,0,0,1,25.35-10.09h12.55a35.15,35.15,0,0,1,26,10.83A33.93,33.93,0,0,1,463,206.45V231.3a34.06,34.06,0,0,1-10.83,25.47A35.67,35.67,0,0,1,426.79,266.86Zm-12.55-16.24h12.55q8.49,0,13.66-7.63A20.51,20.51,0,0,0,444,231.3V206.45q0-9.72-7-15.5a15.53,15.53,0,0,0-10.21-3.82H414.24q-8.49,0-13.66,7.51a20.17,20.17,0,0,0-3.69,11.81V231.3q0,9.6,6.89,15.38A16.11,16.11,0,0,0,414.24,250.62Z" transform="translate(-22 0.01)"/><path class="cls-2" d="M496.92,171.51q10.33,0,16.73,12.05c.66,1.32,1.36,2.79,2.09,4.43L542,249.76V172.12h18.83v77.64q0,7.88-7.51,12.92a20.06,20.06,0,0,1-11.44,3.57q-10.33,0-16.73-12.06-1-2-2.1-4.43L496.8,188v77.64H478V188q0-7.86,7.51-12.92A20.1,20.1,0,0,1,496.92,171.51Z" transform="translate(-22 0.01)"/></g><g class="cls-1"><path class="cls-2" d="M232.71,293.34l-5.8,9.34h-10.7v-9.34Zm8.86,53.82H230.66V302.83a8.77,8.77,0,0,1,4.11-7.58,10.52,10.52,0,0,1,6.16-1.91H257v9.34H241.57Z" transform="translate(-22 0.01)"/><path class="cls-2" d="M275.14,302.68v44.48H264.3V302.83a8.84,8.84,0,0,1,4.11-7.65,10.72,10.72,0,0,1,6.09-1.84h14.66q9.84,0,15.79,5.87a16.88,16.88,0,0,1,5,12.4v2.05A16.47,16.47,0,0,1,302.69,328a21.56,21.56,0,0,1-6.1,2.9l14.59,16.29H297.66L284.2,331.93h-8.36l5.81-9.34h7.51q6.66,0,9-4.61a9.72,9.72,0,0,0,.92-4.32v-2.05q0-6.37-5.73-8.29a13.32,13.32,0,0,0-4.18-.64Z" transform="translate(-22 0.01)"/><path class="cls-2" d="M318.55,293.34h10.91v33.35a11,11,0,0,0,4,8.93,9,9,0,0,0,5.88,2.19h5.81a9.14,9.14,0,0,0,7.86-4.32,11.57,11.57,0,0,0,2.12-6.8V293.34H366v33.35a19.62,19.62,0,0,1-6.23,14.66,20.59,20.59,0,0,1-14.59,5.81h-5.81a20.24,20.24,0,0,1-14.94-6.23,19.55,19.55,0,0,1-5.88-14.24Z" transform="translate(-22 0.01)"/><path class="cls-2" d="M373.86,308.71q0-6.52,6.09-11a23,23,0,0,1,14-4.32h7.23a28.38,28.38,0,0,1,12.74,3,18.49,18.49,0,0,1,4.11,2.83l-9.49,7.3a8.84,8.84,0,0,0-6.37-3.75,6.61,6.61,0,0,0-1-.08H394c-3.54,0-6.21,1-8,3a4.82,4.82,0,0,0-1.2,3c0,1.84,2,3.42,5.87,4.74q1.85.65,6.24,1.77,10.62,2.76,14.87,5.38,6.94,4.26,7,11.19,0,6.45-6.23,11a24.46,24.46,0,0,1-14.59,4.39h-7.23a30.82,30.82,0,0,1-13.31-3,17.69,17.69,0,0,1-4.25-2.84l9.35-7.22a10.09,10.09,0,0,0,6.94,3.68,12.1,12.1,0,0,0,1.27.07h7.23q5.73,0,8.64-3a4.42,4.42,0,0,0,1.27-3q0-3.12-5.87-5.17-.86-.35-10.27-2.9-10.84-2.91-14.73-7A11.46,11.46,0,0,1,373.86,308.71Z" transform="translate(-22 0.01)"/><path class="cls-2" d="M441.07,293.34l-5.81,9.34H424.57v-9.34Zm8.85,53.82H439V302.83a8.77,8.77,0,0,1,4.11-7.58,10.55,10.55,0,0,1,6.16-1.91h16.08v9.34H449.92Z" transform="translate(-22 0.01)"/></g><path class="cls-2" d="M369.27,15.77A257.68,257.68,0,0,0,150.4,35.24a261,261,0,0,0-88.27,84c-33.52,52.69-37.84,102.7-39.37,123.28A277.89,277.89,0,0,0,37.51,354.64c17.39,49.69,44.34,81.06,51.21,88.81,51.71,58.33,116.62,76.11,140.88,81.41,27.19,5.95,118.27,21.38,203.45-36.38C500.15,443,525,378.24,532.65,355c-9.79,17.67-30.72,49.58-69.26,72.9-42.61,25.78-83.34,26.89-115,27.75-39.8,1.09-86.85,2.37-135.5-26.73-5.5-3.29-81.14-50.21-95.15-141.13-7.12-46.22,4.86-83.17,10.66-100.37,15.11-44.86,40.33-73.52,54.81-89.64,11.36-12.65,30.07-33.16,59.6-50.62C291.82,18.15,341.23,15,369.27,15.77Z" transform="translate(-22 0.01)"/></svg>