<svg xmlns="http://www.w3.org/2000/svg" viewBox="0 0 585.89 531.26"><defs><style>.cls-1{font-size:125.99px;}.cls-1,.cls-2,.cls-3{fill:#fff;}.cls-1,.cls-2{font-family:aAstroSpace, a Astro Space;}.cls-2{font-size:72.52px;}</style></defs><g id="Layer_2" data-name="Layer 2"><g id="Layer_2-2" data-name="Layer 2"><text class="cls-1" transform="translate(122.91 265.63)">ORion </text><text class="cls-2" transform="translate(192.16 347.16)">Trust</text><path class="cls-3" d="M347.27,15.77A257.66,257.66,0,0,0,128.4,35.24c-52.25,30.33-79.64,70.49-88.27,84C6.61,171.93,2.29,221.94.76,242.52A277.76,277.76,0,0,0,15.51,354.64c17.39,49.69,44.34,81.06,51.21,88.81,51.71,58.33,116.62,76.11,140.88,81.41,27.19,5.95,118.27,21.38,203.45-36.38C478.15,443,503,378.24,510.65,355c-9.79,17.67-30.72,49.58-69.26,72.9-42.61,25.78-83.34,26.89-115,27.75-39.8,1.09-86.85,2.37-135.5-26.73-5.5-3.29-81.14-50.21-95.15-141.13-7.12-46.22,4.86-83.17,10.66-100.37,15.11-44.86,40.33-73.52,54.81-89.64,11.36-12.65,30.07-33.16,59.6-50.62C269.82,18.15,319.23,15,347.27,15.77Z"/></g></g></svg>
