<svg width="34" height="28" viewBox="0 0 34 28" fill="none" xmlns="http://www.w3.org/2000/svg">
<path d="M12.2778 3.6875C12.2778 2.13477 13.5469 0.875 15.1111 0.875H18.8889C20.4531 0.875 21.7222 2.13477 21.7222 3.6875V7.4375C21.7222 8.99023 20.4531 10.25 18.8889 10.25H18.4167V12.5938H27.3889C29.2128 12.5938 30.6944 14.0645 30.6944 15.875V17.75H31.1667C32.7309 17.75 34 19.0098 34 20.5625V24.3125C34 25.8652 32.7309 27.125 31.1667 27.125H27.3889C25.8247 27.125 24.5556 25.8652 24.5556 24.3125V20.5625C24.5556 19.0098 25.8247 17.75 27.3889 17.75H27.8611V15.875C27.8611 15.6172 27.6486 15.4062 27.3889 15.4062H18.4167V17.75H18.8889C20.4531 17.75 21.7222 19.0098 21.7222 20.5625V24.3125C21.7222 25.8652 20.4531 27.125 18.8889 27.125H15.1111C13.5469 27.125 12.2778 25.8652 12.2778 24.3125V20.5625C12.2778 19.0098 13.5469 17.75 15.1111 17.75H15.5833V15.4062H6.61111C6.35139 15.4062 6.13889 15.6172 6.13889 15.875V17.75H6.61111C8.17535 17.75 9.44444 19.0098 9.44444 20.5625V24.3125C9.44444 25.8652 8.17535 27.125 6.61111 27.125H2.83333C1.2691 27.125 0 25.8652 0 24.3125V20.5625C0 19.0098 1.2691 17.75 2.83333 17.75H3.30556V15.875C3.30556 14.0645 4.78715 12.5938 6.61111 12.5938H15.5833V10.25H15.1111C13.5469 10.25 12.2778 8.99023 12.2778 7.4375V3.6875Z" fill="white"/>
</svg>
